<?xml version="1.0" standalone="no"?>
<!DOCTYPE svg PUBLIC "-//W3C//DTD SVG 20010904//EN"
 "http://www.w3.org/TR/2001/REC-SVG-20010904/DTD/svg10.dtd">
<svg version="1.0" xmlns="http://www.w3.org/2000/svg"
 width="740.000000pt" height="740.000000pt" viewBox="0 0 740.000000 740.000000"
 preserveAspectRatio="xMidYMid meet">

<g transform="translate(0.000000,740.000000) scale(0.100000,-0.100000)"
fill="#000000" stroke="none">
<path d="M3185 5203 c-526 -179 -2084 -704 -2110 -711 -18 -5 -18 -6 5 -13 14
-4 419 -141 900 -304 481 -163 1043 -353 1248 -423 l372 -126 48 16 c26 9 301
102 612 208 1153 391 1862 630 1873 631 19 1 -23 15 -1048 361 -539 181 -1092
368 -1230 414 -137 46 -254 84 -260 83 -5 0 -190 -61 -410 -136z"/>
<path d="M1979 3233 c-1 -368 0 -675 1 -683 15 -108 395 -297 785 -390 560
-133 1115 -133 1661 0 365 90 684 235 769 350 l25 34 0 678 c0 373 -4 678 -8
678 -5 0 -62 -19 -128 -41 -65 -23 -364 -125 -664 -226 -300 -102 -595 -202
-657 -223 -61 -21 -125 -41 -142 -45 -31 -7 -53 0 -1272 414 -196 67 -359 121
-363 121 -3 0 -7 -300 -7 -667z"/>
</g>
</svg>
